<svg xmlns="http://www.w3.org/2000/svg" width="220.734" height="255.411" viewBox="0 0 220.734 255.411">
  <g id="Group_8" data-name="Group 8" transform="translate(-263.209 -128.794)">
    <path id="Polygon_23" data-name="Polygon 23" d="M71.843,0,95.791,41.252,71.843,82.5h-47.9L0,41.252,23.948,0Z" transform="translate(263.209 205.496)"/>
    <path id="Polygon_24" data-name="Polygon 24" d="M98.208,0l32.736,56.6-32.736,56.6H32.736L0,56.6,32.736,0Z" transform="translate(337 128.794)"/>
    <path id="Union_4" data-name="Union 4" d="M-2571.764,132.206-2610,66.1-2571.764,0h76.472l38.236,66.1-38.236,66.1ZM-2600.5,66.1l33.486,58.1h66.972l33.486-58.1L-2500.042,8h-66.972Zm87.231,36.1h-12.259V96.034h8.76l16.74-29.907v-.048l-16.74-29.908h-8.76V30h12.26l18.183,32.411h9.058v7.2h-8.954l-18.286,32.6h0Zm-28.26,0h-12.245l-18.286-32.6H-2581v-7.2h9.042L-2553.774,30h12.246v6.171h-8.746L-2567.028,66.1l16.754,29.931h8.746v6.17h0Z" transform="translate(2941 252)"/>
  </g>
</svg>
